<!-- <?xml-stylesheet href="../css/logo-svg.css" type="text/css"?> -->
<svg class='logo-img' xmlns="http://www.w3.org/2000/svg"
    viewBox="0 0 173.61 115.28" width="80">
    <!-- <style>
        @import url(../../css/logo-svg.css);
    </style> -->
    
    <linearGradient id="liner-grad" x1="22%" y1="0%" x2="78%" y2="100%">
        <stop offset="45%" style="stop-color: rgb(61, 61, 61)" />
        <stop offset="100%" style="stop-color: #75c32f" />
    </linearGradient>

    
    <path class="w3" fill= "url(#liner-grad)"
        d="M3.37 36.37h13.55c1.84 10.73 7.33 18.94 19.62 18.91 14.8-.05 20.85-10.43 19.26-24.61h12.48c.42 13.77 5.6 23.83 17.47 24.61 11.39.74 18.49-6.3 19.62-18.91h14.98c-2.75 19.69-11.42 32.72-34.37 32.48-10.17-.11-17.14-4.01-20.81-12.56h-3.36c-3.42 8.7-12.06 12.45-25.23 12.68-21.84.4-30.22-13.06-33.21-32.6zm102-7.65C108.52 11.85 117.95.34 138.09.01c20.14-.33 32.55 10.79 33.3 28.71.68 16.29-6.16 22.31-13.84 25.71v1.41c9.26 3.25 17.14 12.48 15.94 28.53-2.33 22.54-15.51 31.07-35.4 30.9-25.48 0-32.7-14.59-34.72-31.26h15.85c1.13 12.1 9.48 17.63 18.87 17.15 11.81-.96 18.13-5.91 18.63-17.15.66-14.59-7.27-20.73-22.75-21.41V48.74c12.8 1.12 22.99-2.75 22-20.02-.66-11.61-8.83-15.49-17.88-15.41-10.17.41-15.74 5.92-17.74 15.41h-14.98z" />
    <path style="fill: #4f4f4f" class="schools"
        d="M2.53 87.22c0 .34.08.62.25.84.17.22.4.4.69.53.28.14.6.25.98.34.37.08.76.16 1.16.23.55.11 1.07.23 1.55.35.49.13.94.32 1.35.57.42.26.75.6 1.01 1.04.25.43.38.99.38 1.68 0 .64-.14 1.2-.43 1.68-.29.49-.69.9-1.21 1.23-.52.33-1.14.58-1.86.75-.72.17-1.52.25-2.38.25a12.233 12.233 0 0 1-2.59-.25A7.76 7.76 0 0 1 0 96.01v-1.7c.6.21 1.2.38 1.79.5.59.12 1.24.18 1.95.18.56 0 1.06-.05 1.51-.13.45-.09.84-.22 1.17-.39.32-.18.57-.39.75-.65.17-.26.26-.57.26-.91 0-.35-.08-.64-.24-.86-.16-.23-.37-.42-.64-.57-.28-.15-.59-.27-.94-.37-.36-.1-.73-.18-1.12-.26-.51-.1-1.03-.21-1.56-.34a6.45 6.45 0 0 1-1.43-.56c-.43-.24-.78-.55-1.04-.96-.27-.41-.4-.94-.4-1.58 0-.65.14-1.22.41-1.71.28-.48.65-.88 1.12-1.19.47-.32 1.01-.55 1.64-.71a7.74 7.74 0 0 1 1.96-.24c.81 0 1.55.06 2.24.19.69.13 1.31.3 1.87.5v1.71c-.6-.19-1.2-.36-1.81-.48-.61-.12-1.24-.19-1.89-.2-.54 0-1.01.06-1.4.15-.39.1-.71.23-.95.4-.25.17-.44.38-.55.61-.11.24-.17.49-.17.78zm17.55-3.66c.7 0 1.37.06 2.01.19.64.12 1.19.3 1.64.53v1.68c-.64-.21-1.22-.37-1.76-.47-.54-.1-1.09-.15-1.65-.15-.59 0-1.17.09-1.75.25-.58.17-1.1.44-1.56.82-.46.38-.82.89-1.1 1.52-.28.62-.42 1.4-.42 2.33 0 .68.1 1.3.31 1.87.21.57.52 1.07.93 1.48.41.42.93.75 1.55.97.62.24 1.33.35 2.15.35.59 0 1.18-.05 1.78-.16.6-.11 1.19-.26 1.75-.46V96c-.17.09-.4.18-.67.27-.28.08-.59.16-.93.23-.33.06-.69.11-1.07.16-.37.03-.75.05-1.12.05-.98 0-1.9-.12-2.77-.38-.87-.25-1.63-.64-2.28-1.17a5.59 5.59 0 0 1-1.54-2c-.37-.8-.56-1.76-.56-2.87 0-.82.1-1.56.3-2.22.2-.66.47-1.23.81-1.73.35-.5.75-.93 1.21-1.28.46-.35.96-.64 1.48-.86.52-.23 1.07-.39 1.62-.49.56-.1 1.11-.15 1.64-.15zm52.39 6.59c0-.77-.11-1.46-.33-2.06-.22-.6-.53-1.12-.92-1.53-.39-.42-.85-.74-1.4-.95-.54-.22-1.13-.33-1.77-.33-.64 0-1.23.11-1.77.33-.55.21-1.01.53-1.4.95-.39.41-.7.93-.92 1.53-.22.6-.33 1.29-.33 2.06 0 .76.11 1.45.33 2.05.22.6.53 1.11.93 1.52.39.42.86.73 1.4.94.54.22 1.14.33 1.78.33.64 0 1.22-.11 1.76-.33.54-.21 1-.52 1.39-.94.39-.41.7-.92.92-1.52.22-.6.33-1.29.33-2.05zm2.46 0c0 .98-.16 1.88-.49 2.68-.32.81-.78 1.5-1.37 2.07-.6.58-1.32 1.02-2.16 1.34-.85.32-1.8.47-2.84.47-1.08 0-2.05-.15-2.9-.47-.85-.32-1.57-.76-2.17-1.34a5.786 5.786 0 0 1-1.36-2.07c-.32-.8-.47-1.7-.47-2.68 0-.99.16-1.89.49-2.69.32-.81.78-1.51 1.37-2.09a6.46 6.46 0 0 1 2.17-1.34c.85-.31 1.8-.47 2.85-.47 1.07 0 2.03.16 2.88.47.86.32 1.58.77 2.17 1.34.59.58 1.04 1.28 1.36 2.09.32.8.47 1.7.47 2.69zm4.28 6.24V77.33h2.37v19.06h-2.37zm9.17-9.17c0 .34.08.62.26.84.16.22.39.4.68.53.28.14.6.25.98.34.37.08.76.16 1.16.23.55.11 1.07.23 1.55.35.49.13.94.32 1.35.57.42.26.75.6 1.01 1.04.25.43.38.99.38 1.68 0 .64-.14 1.2-.43 1.68-.28.49-.69.9-1.21 1.23-.52.33-1.14.58-1.86.75-.72.17-1.52.25-2.38.25a12.233 12.233 0 0 1-2.59-.25 7.76 7.76 0 0 1-1.43-.45v-1.7c.6.21 1.2.38 1.79.5.59.12 1.24.18 1.95.18.56 0 1.06-.05 1.52-.13.44-.09.83-.22 1.16-.39.32-.18.57-.39.75-.65.17-.26.26-.57.26-.91 0-.35-.08-.64-.24-.86-.16-.23-.37-.42-.64-.57-.27-.15-.59-.27-.94-.37-.36-.1-.73-.18-1.12-.26-.51-.1-1.03-.21-1.55-.34-.53-.14-1-.32-1.44-.56-.43-.24-.78-.55-1.04-.96-.27-.41-.4-.94-.4-1.58 0-.65.14-1.22.41-1.71.28-.48.65-.88 1.12-1.19.47-.32 1.01-.55 1.64-.71.62-.16 1.27-.24 1.96-.24.81 0 1.55.06 2.24.19.69.13 1.31.3 1.87.5v1.71c-.59-.19-1.2-.36-1.81-.48-.61-.12-1.24-.19-1.89-.2-.54 0-1.01.06-1.4.15-.38.1-.71.23-.95.4-.25.17-.43.38-.55.61-.11.24-.17.49-.17.78zm-57.9-1.62h.05c.26-.29.55-.56.88-.81.33-.25.68-.47 1.08-.65.4-.18.83-.31 1.28-.42.46-.11.95-.16 1.48-.16.55 0 1.1.06 1.65.19.54.13 1.05.35 1.52.68.46.33.85.77 1.14 1.35.3.58.44 1.33.44 2.24v8.37h-2.37v-8.04c0-1.01-.22-1.77-.66-2.27-.44-.51-1.17-.77-2.17-.77-.83 0-1.62.19-2.37.59-.75.39-1.4.93-1.95 1.61v8.88h-2.37V77.33h2.37v8.27zm24.94 4.55c0-.77-.11-1.46-.32-2.06-.22-.6-.53-1.12-.92-1.53-.4-.42-.86-.74-1.4-.95-.54-.22-1.13-.33-1.77-.33-.64 0-1.24.11-1.78.33-.54.21-1 .53-1.4.95-.39.41-.69.93-.91 1.53-.22.6-.33 1.29-.33 2.06 0 .76.11 1.45.33 2.05.22.6.52 1.11.92 1.52.4.42.87.73 1.41.94.54.22 1.13.33 1.77.33.64 0 1.23-.11 1.77-.33.53-.21.99-.52 1.39-.94.39-.41.7-.92.92-1.52.21-.6.32-1.29.32-2.05zm2.47 0c0 .98-.16 1.88-.49 2.68-.32.81-.78 1.5-1.38 2.07-.6.58-1.31 1.02-2.16 1.34-.85.32-1.79.47-2.84.47-1.08 0-2.04-.15-2.89-.47-.85-.32-1.57-.76-2.17-1.34a5.658 5.658 0 0 1-1.36-2.07c-.32-.8-.48-1.7-.48-2.68 0-.99.16-1.89.49-2.69.32-.81.79-1.51 1.38-2.09.6-.57 1.32-1.02 2.17-1.34.85-.31 1.8-.47 2.85-.47 1.06 0 2.03.16 2.88.47.86.32 1.58.77 2.17 1.34.59.58 1.04 1.28 1.36 2.09.31.8.47 1.7.47 2.69z" />
    <path style="fill:#50b300" class="com"
        d="M112.63 76.05c0-.24-.04-.45-.11-.63a1.32 1.32 0 0 0-.28-.46c-.13-.12-.27-.21-.44-.27-.16-.06-.35-.09-.55-.09-.2 0-.38.03-.55.09-.17.06-.31.15-.43.27-.12.12-.22.28-.29.46-.07.18-.1.39-.1.63 0 .25.03.46.1.64s.17.33.29.45c.12.12.26.21.43.28.17.06.35.09.55.09.2 0 .39-.03.55-.09.17-.07.31-.16.44-.28.12-.12.21-.27.28-.45.07-.18.11-.39.11-.64zm.87 0c0 .31-.05.59-.15.84-.1.25-.25.47-.44.65-.19.19-.42.33-.7.43-.28.1-.6.15-.96.15-.35 0-.67-.05-.95-.15a1.88 1.88 0 0 1-1.15-1.08c-.1-.25-.15-.53-.15-.84 0-.3.05-.58.15-.83a1.88 1.88 0 0 1 1.15-1.08c.28-.1.6-.15.95-.15.36 0 .68.05.96.15.28.1.51.24.7.43.19.18.34.4.44.65.1.25.15.53.15.83zm-6.26-1.45c-.23 0-.45.04-.64.1-.19.07-.36.16-.5.29-.14.12-.25.28-.33.46-.07.19-.11.39-.11.63s.03.44.1.62.18.33.31.45c.13.11.3.2.49.27.19.06.41.09.65.09.18 0 .35-.02.54-.04.18-.02.35-.05.51-.1v.62c-.16.04-.34.07-.52.1-.19.02-.38.03-.58.03-.39 0-.74-.05-1.04-.14-.29-.1-.54-.24-.74-.41-.2-.18-.35-.39-.45-.63-.1-.25-.15-.52-.15-.81 0-.31.05-.59.16-.85s.26-.49.46-.68c.21-.19.46-.34.76-.45.3-.11.65-.16 1.03-.16.19 0 .38.01.55.03.18.02.34.06.48.1v.61a3.923 3.923 0 0 0-.98-.13zm-3.9 3.45a.4.4 0 0 0 .39-.4.39.39 0 0 0-.39-.39c-.22 0-.4.17-.4.39s.18.4.4.4zm13.52-1.07c.1-.31.23-.65.38-1.01l.79-1.9h1.19v3.98h-.85v-2.02c0-.29.02-.64.04-1.03h-.03c-.04.11-.08.24-.13.38-.06.14-.11.28-.17.42l-.95 2.25h-.55l-.95-2.25c-.06-.14-.11-.28-.17-.42-.05-.14-.1-.27-.14-.38h-.03c.03.37.05.71.05 1.03v2.02h-.85v-3.98h1.18l.79 1.89c.14.32.26.66.38 1.02h.02z" />
</svg>